<svg width="19776" height="16487" viewBox="0 0 19776 16487" fill="none" xmlns="http://www.w3.org/2000/svg">
<path d="M1474.86 2571.75L6383.42 2427.21L3828.89 6881.44L1474.86 2571.75Z" fill="#FEDE3A"/>
<path d="M19772.8 8439.84C19772.8 7383.08 19564.6 6336.66 19160.2 5360.34C18755.8 4384.03 18163.1 3496.92 17415.8 2749.68C16668.6 2002.43 15781.5 1409.69 14805.2 1005.29C13828.9 600.881 12782.4 392.736 11725.7 392.736L11725.7 8439.84H19772.8Z" fill="#94F4FA"/>
<path d="M3678.58 8439.84C3678.58 9496.6 3886.73 10543 4291.13 11519.3C4695.54 12495.6 5288.28 13382.8 6035.52 14130C6782.76 14877.2 7669.87 15470 8646.19 15874.4C9622.51 16278.8 10668.9 16486.9 11725.7 16486.9L11725.7 8439.84H3678.58Z" fill="#94F4FA"/>
<path d="M11726.2 392.8C10669.5 392.8 9623.06 600.944 8646.74 1005.35C7670.42 1409.75 6783.32 2002.5 6036.07 2749.74C5288.83 3496.98 4696.09 4384.09 4291.68 5360.41C3887.28 6336.73 3679.13 7383.14 3679.13 8439.9L11726.2 8439.9L11726.2 392.8Z" fill="#63F3FC"/>
<circle cx="11727.3" cy="8438.23" r="3902.84" fill="#3C3131"/>
<path d="M11725.7 16486.9C11960.7 16486.9 12193.4 16433.3 12410.6 16329.1C12627.7 16225 12825 16072.3 12991.2 15879.8C13157.4 15687.3 13289.2 15458.8 13379.1 15207.3C13469.1 14955.8 13515.4 14686.2 13515.4 14414C13515.4 14141.8 13469.1 13872.2 13379.1 13620.7C13289.2 13369.2 13157.4 13140.7 12991.2 12948.2C12825 12755.7 12627.7 12603 12410.6 12498.9C12193.4 12394.7 11960.7 12341.1 11725.7 12341.1L11725.7 14414V16486.9Z" fill="#94F4FA"/>
<path d="M3678.58 8439.84C3678.58 8674.86 3732.2 8907.58 3836.37 9124.72C3940.55 9341.85 4093.24 9539.14 4285.73 9705.33C4478.22 9871.51 4706.74 10003.3 4958.24 10093.3C5209.73 10183.2 5479.29 10229.5 5751.51 10229.5C6023.73 10229.5 6293.29 10183.2 6544.79 10093.3C6796.29 10003.3 7024.81 9871.51 7217.3 9705.33C7409.79 9539.14 7562.48 9341.85 7666.65 9124.72C7770.83 8907.58 7824.45 8674.86 7824.45 8439.84L5751.51 8439.84H3678.58Z" fill="#63F3FC"/>
<path d="M11725.7 4538.6C11960.7 4538.6 12193.4 4484.98 12410.6 4380.81C12627.7 4276.64 12825 4123.94 12991.2 3931.45C13157.4 3738.96 13289.2 3510.45 13379.1 3258.95C13469.1 3007.45 13515.4 2737.89 13515.4 2465.67C13515.4 2193.45 13469.1 1923.89 13379.1 1672.39C13289.2 1420.89 13157.4 1192.37 12991.2 999.884C12825 807.395 12627.7 654.704 12410.6 550.529C12193.4 446.354 11960.7 392.736 11725.7 392.736L11725.7 2465.67V4538.6Z" fill="#63F3FC"/>
<path d="M15630.1 8439.84C15630.1 8674.86 15683.8 8907.58 15787.9 9124.72C15892.1 9341.85 16044.8 9539.14 16237.3 9705.33C16429.8 9871.51 16658.3 10003.3 16909.8 10093.3C17161.3 10183.2 17430.8 10229.5 17703.1 10229.5C17975.3 10229.5 18244.8 10183.2 18496.3 10093.3C18747.8 10003.3 18976.4 9871.51 19168.9 9705.33C19361.3 9539.14 19514 9341.85 19618.2 9124.72C19722.4 8907.58 19776 8674.86 19776 8439.84L17703.1 8439.84H15630.1Z" fill="#94F4FA"/>
<circle cx="12327.3" cy="7251.79" r="1609.42" transform="rotate(-13.5 12327.3 7251.79)" fill="#FFF8F8"/>
</svg>